<svg width="30" height="23" viewBox="0 0 30 23" fill="none" xmlns="http://www.w3.org/2000/svg">
<mask id="mask0_2_109" style="mask-type:alpha" maskUnits="userSpaceOnUse" x="4" y="0" width="22" height="16">
<path fill-rule="evenodd" clip-rule="evenodd" d="M15 0.5C10 0.5 5.73 3.61 4 8C5.73 12.39 10 15.5 15 15.5C20 15.5 24.27 12.39 26 8C24.27 3.61 20 0.5 15 0.5V0.5ZM15 13C12.24 13 10 10.76 10 8C10 5.24 12.24 3 15 3C17.76 3 20 5.24 20 8C20 10.76 17.76 13 15 13V13ZM15 5C13.34 5 12 6.34 12 8C12 9.66 13.34 11 15 11C16.66 11 18 9.66 18 8C18 6.34 16.66 5 15 5V5Z" fill="white"/>
</mask>
<g mask="url(#mask0_2_109)">
<g filter="url(#filter0_d_2_109)">
<path d="M2 -5H28V21H2V-5Z" fill="white"/>
</g>
</g>
<defs>
<filter id="filter0_d_2_109" x="-2" y="-5" width="34" height="34" filterUnits="userSpaceOnUse" color-interpolation-filters="sRGB">
<feFlood flood-opacity="0" result="BackgroundImageFix"/>
<feColorMatrix in="SourceAlpha" type="matrix" values="0 0 0 0 0 0 0 0 0 0 0 0 0 0 0 0 0 0 127 0" result="hardAlpha"/>
<feOffset dy="4"/>
<feGaussianBlur stdDeviation="2"/>
<feComposite in2="hardAlpha" operator="out"/>
<feColorMatrix type="matrix" values="0 0 0 0 0 0 0 0 0 0 0 0 0 0 0 0 0 0 0.25 0"/>
<feBlend mode="normal" in2="BackgroundImageFix" result="effect1_dropShadow_2_109"/>
<feBlend mode="normal" in="SourceGraphic" in2="effect1_dropShadow_2_109" result="shape"/>
</filter>
</defs>
</svg>
